<svg xmlns="http://www.w3.org/2000/svg" viewBox="0 0 48 48"><defs><style>.cls-1{fill:none;stroke:#000;stroke-linecap:round;stroke-miterlimit:10;}</style></defs><title>alergenosArtboard 6 copy 2</title><g id="Layer_2" data-name="Layer 2"><line class="cls-1" x1="18.57" y1="15.74" x2="29.42" y2="32.26"/><line class="cls-1" x1="26.88" y1="15.74" x2="37.73" y2="32.26"/><line class="cls-1" x1="10.27" y1="15.74" x2="21.12" y2="32.26"/><path d="M24,0A24,24,0,1,0,48,24,24,24,0,0,0,24,0Zm0,1A23,23,0,1,1,1,24,23,23,0,0,1,24,1Z"/><path d="M24,0A24,24,0,1,0,48,24,24,24,0,0,0,24,0Zm0,1A23,23,0,1,1,1,24,23,23,0,0,1,24,1Z"/></g></svg>