<svg xmlns="http://www.w3.org/2000/svg" viewBox="0 0 62.4 62.4"><title>Artboard 31</title><g id="Layer_2" data-name="Layer 2"><path d="M24.32,36.53h0a1.91,1.91,0,0,0,0,.22v0a2.19,2.19,0,0,1,0,.23v0a9.07,9.07,0,0,0,.26,1.44H22.1a7.85,7.85,0,0,1-7.81-7.83V27.19a7.82,7.82,0,0,1,6.43-7.67v0s0,0,0,0a2.66,2.66,0,0,0,2.69,2.14h3.37a2.65,2.65,0,0,0,2.7-2.19h0a7.83,7.83,0,0,1,5.39,3.81H34a9.59,9.59,0,0,0-2,.29h0l-.35.1,0,0-.3.1-.1,0L31,24a9.36,9.36,0,0,0-4.88,4.35l0,.09-.12.23c0,.07-.07.15-.1.22l0,.11c0,.1-.09.2-.12.3l0,0c0,.12-.09.23-.12.34v0c0,.12-.09.25-.12.37h0c-.08.26-.14.52-.19.78l-.7,3.38,0,.26s0,.05,0,.08,0,.12,0,.17,0,.06,0,.09l0,.16s0,.07,0,.1,0,.1,0,.16,0,.07,0,.11a.94.94,0,0,0,0,.15s0,.07,0,.11,0,.09,0,.14a.59.59,0,0,1,0,.12V36C24.31,36.14,24.31,36.33,24.32,36.53ZM23.05,19.2v-1c0-.05.12-.17.37-.17h3.37c.26,0,.37.12.37.17v1c0,.05-.12.17-.37.17H23.42C23.17,19.37,23.05,19.25,23.05,19.2ZM40.95,26a.39.39,0,0,1-.43.1l-3.27-.79c-.25-.06-.35-.23-.33-.29l.23-1a.39.39,0,0,1,.43-.1l3.27.79c.25.06.35.23.33.29ZM25.9,36v-.07c0-.08,0-.16,0-.23a.26.26,0,0,1,0-.08c0-.06,0-.12,0-.19a.17.17,0,0,1,0-.06c0-.09,0-.16,0-.25s0,0,0-.05a1.81,1.81,0,0,1,0-.2s0,0,0-.07l0-.25.7-3.38a7.81,7.81,0,0,1,7.62-6.22h.2a2.68,2.68,0,0,0,2.11,2.71L40,28.4a2.64,2.64,0,0,0,3.21-1.72,7.8,7.8,0,0,1,4.73,8.81l-.7,3.38A7.78,7.78,0,0,1,38,44.92L32.12,43.7a7.8,7.8,0,0,1-6.18-6.84.15.15,0,0,0,0-.05c0-.05,0-.11,0-.16a.32.32,0,0,0,0-.09,2.11,2.11,0,0,1,0-.23v-.24A1,1,0,0,1,25.9,36ZM39,22l-.85-.21a2.83,2.83,0,0,0-2.13.32,9.4,9.4,0,0,0-6.49-4.15,2.65,2.65,0,0,0-2.7-2.2H23.42a2.66,2.66,0,0,0-2.7,2.2,9.35,9.35,0,0,0-8,9.27v3.45A9.39,9.39,0,0,0,21,39.95l2.45.06h1.75a9.29,9.29,0,0,0,6.62,5.25l5.89,1.22a9.25,9.25,0,0,0,1.9.2h0a9.38,9.38,0,0,0,9.18-7.49l.7-3.38a9.38,9.38,0,0,0-6-10.71,2.69,2.69,0,0,0-2.12-2.56L41,22.46Z"/><path d="M22.07,35.91a5.29,5.29,0,0,1-5.21-4.59.8.8,0,0,0-.78-.69h0a.8.8,0,0,0-.78.9,6.87,6.87,0,0,0,6.81,6,.8.8,0,1,0,0-1.59Z"/><path d="M32.31,42.8l.16,0a.8.8,0,0,0,.79-.69.81.81,0,0,0-.65-.88,5.27,5.27,0,0,1-4.17-5.52.79.79,0,0,0-.62-.84h0a.78.78,0,0,0-.94.71A6.81,6.81,0,0,0,28,39.86,6.73,6.73,0,0,0,32.31,42.8Z"/><path d="M31.2,0A31.2,31.2,0,1,0,62.4,31.2,31.21,31.21,0,0,0,31.2,0Zm0,1.3A29.9,29.9,0,1,1,1.3,31.2,29.89,29.89,0,0,1,31.2,1.3Z"/></g></svg>