<svg xmlns="http://www.w3.org/2000/svg" viewBox="0 0 62.4 62.4"><title>Artboard 29</title><g id="Layer_2" data-name="Layer 2"><path  d="M32.88,29.15l1,15v0c.07.73.11,1.47.11,2.2V48a2.78,2.78,0,0,1-2.78,2.78h-.07A2.78,2.78,0,0,1,28.4,48V46.42c0-.73,0-1.47.11-2.2v0l1.61-23.35a.62.62,0,0,0,0-.21c0-.09,0-.17,0-.26v0a3,3,0,0,0,0-.54A3.19,3.19,0,0,0,31.3,20a3.37,3.37,0,0,0,1-.17,3.13,3.13,0,0,0,0,.47v0c0,.09,0,.17,0,.26a.64.64,0,0,0,0,.21l.57,8.3ZM28.5,20.38a1.68,1.68,0,0,1-1.68,1.68h0a1.67,1.67,0,0,1-1.6-1.16v0l-.05-.16L24,17.53l3.17,1.15.17.05h0a1.67,1.67,0,0,1,1.16,1.6v0ZM29.76,16l0,0a1.55,1.55,0,0,0,.08-.16l1.44-3.06,1.44,3.06.08.16,0,0a1.67,1.67,0,0,1-.31,2l0,0a1.66,1.66,0,0,1-1.19.49A1.69,1.69,0,0,1,30.11,18l0,0A1.67,1.67,0,0,1,29.76,16Zm4.14,4.41v0a1.67,1.67,0,0,1,1.16-1.6h0l.17-.05,3.17-1.15L37.29,20.7a1.1,1.1,0,0,0-.05.17v0a1.67,1.67,0,0,1-1.6,1.16h0a1.69,1.69,0,0,1-1.19-.49A1.67,1.67,0,0,1,33.9,20.38Zm.47,7.27-.3-4.37a3.26,3.26,0,0,0,1.51.37h0a3.25,3.25,0,0,0,3.11-2.27l0,0s0-.08,0-.11l1.73-4.77a.8.8,0,0,0-1-1l-4.77,1.73-.12,0h0a3.22,3.22,0,0,0-.33-2l0,0-.05-.11L32,10.51a.8.8,0,0,0-1.44,0l-2.16,4.6-.05.11,0,0a3.27,3.27,0,0,0-.31,2l-.21-.08h0l-.12,0L22.9,15.45a.8.8,0,0,0-1,1l1.73,4.77s0,.08,0,.11l0,0a3.26,3.26,0,0,0,3.11,2.27h0a3.23,3.23,0,0,0,1.51-.37l-.77,11.17-.19,2.71-.47,6.91c-.08.78-.11,1.57-.11,2.34V48a4.38,4.38,0,0,0,4.38,4.38h.07A4.38,4.38,0,0,0,35.62,48V46.42c0-.78,0-1.57-.11-2.34L34.54,30Z"/><path d="M31.2,0A31.2,31.2,0,1,0,62.4,31.2,31.21,31.21,0,0,0,31.2,0Zm0,1.3A29.9,29.9,0,1,1,1.3,31.2,29.89,29.89,0,0,1,31.2,1.3Z"/></g></svg>