<svg xmlns="http://www.w3.org/2000/svg" viewBox="0 0 62.4 62.4"><title>Artboard 40</title><g id="Layer_2" data-name="Layer 2"><path d="M18.37,41.76a4.48,4.48,0,0,1-1.29-3.13v-.11A4.51,4.51,0,0,1,21.56,34l3.71,0h.15A4.48,4.48,0,0,1,29,35.85a.79.79,0,0,0,1.3,0,4.51,4.51,0,0,1,3.67-1.92l8.19,0h.45l.15,0h.07l.15,0H43l.15,0h.05l.15,0,.05,0,.15.05.05,0,.15.06.05,0,.15.07.05,0,.15.07.05,0,.14.08.05,0,.14.08.05,0,.13.09.05,0,.12.1.05,0,.11.1.06,0,.11.1.1.1a4.48,4.48,0,0,1,1.29,3.13v.11A4.51,4.51,0,0,1,42.16,43l-8.19,0a4.48,4.48,0,0,1-3.69-1.88.79.79,0,0,0-1.3,0,4.51,4.51,0,0,1-3.67,1.92l-3.71,0A4.58,4.58,0,0,1,18.37,41.76Zm14.45-9.31a5.88,5.88,0,0,0-3.17,1.67,5.82,5.82,0,0,0-4.38-1.75l-3.71,0a6.11,6.11,0,0,0-6.07,6.14v.11a6.1,6.1,0,0,0,3,5.23,5.51,5.51,0,0,0,2.92.84h.19l3.71,0a6.13,6.13,0,0,0,4.32-1.83A6,6,0,0,0,34,44.64l8.19,0a6.1,6.1,0,0,0,6.06-6.14v-.11a6.09,6.09,0,0,0-1.11-3.47,7.34,7.34,0,0,0-1.31-1.36l-.08-.06-.14-.1-.1-.06-.13-.08-.1-.06L45.1,33,45,33l-.23-.11-.09,0-.16-.07-.1,0-.18-.07-.08,0-.25-.08-.05,0-.22-.06-.09,0-.19,0-.08,0-.24,0h0l-.28,0H42.1l-6.35,0-2,0C33.57,32.34,33,32.42,32.81,32.45Z"/><path d="M33.94,36.15l8.19,0a2.27,2.27,0,0,1,1.62.66,2.3,2.3,0,0,1,.68,1.61v.11a.79.79,0,0,0,.78.79h0a.79.79,0,0,0,.79-.8v-.11a3.82,3.82,0,0,0-1.16-2.73,3.86,3.86,0,0,0-2.75-1.12l-8.18,0a.8.8,0,0,0,0,1.6Z"/><path d="M35.55,32.72a4.51,4.51,0,0,1-1.83-2.49.79.79,0,0,0-1.23-.42,4.48,4.48,0,0,1-4.1.6l-7.74-2.68A4.51,4.51,0,0,1,17.87,22l0-.1a4.48,4.48,0,0,1,2.23-2.55l.12-.06.13-.06.07,0,.14-.05.07,0,.15-.05.06,0L21,19h.06l.16,0h.06l.16,0h.06l.16,0h.06l.16,0h.71l.16,0h.06l.16,0h.07l.15,0,.09,0,.13,0,.21.07,7.74,2.68a4.51,4.51,0,0,1,2.86,3,.79.79,0,0,0,1.23.42,4.48,4.48,0,0,1,4-.64l.14,0,3.51,1.21a4.51,4.51,0,0,1,2.79,5.73l0,.1a4.49,4.49,0,0,1-1.37,2A63.4,63.4,0,0,1,35.55,32.72ZM32,20.32l-1.88-.66-6-2.07L24,17.52l-.07,0-.09,0-.19-.05-.08,0-.27-.06h0l-.24,0h-.09l-.19,0h-1l-.18,0h-.1l-.25,0h-.09l-.18,0-.11,0-.15,0-.11,0-.16,0-.1,0a7.34,7.34,0,0,0-1.68.87,6.09,6.09,0,0,0-2.17,2.93l0,.1a6.1,6.1,0,0,0,3.77,7.76l7.74,2.68a6,6,0,0,0,4.68-.29,6.13,6.13,0,0,0,1.24,1.72c.64.62,8.86.14,12,1.18a6.13,6.13,0,0,0,1.49-2.36l0-.1a6.11,6.11,0,0,0-3.78-7.76l-3.51-1.21a5.82,5.82,0,0,0-4.71.25,5.88,5.88,0,0,0-2.46-2.6C32.74,20.64,32.22,20.38,32,20.32Z"/><path d="M31.66,23.36a.79.79,0,0,0-.49-1l-7.74-2.67a3.86,3.86,0,0,0-3,.18,3.82,3.82,0,0,0-2,2.22l0,.1a.79.79,0,0,0,.49,1h0a.79.79,0,0,0,1-.5l0-.1a2.3,2.3,0,0,1,1.16-1.31,2.27,2.27,0,0,1,1.75-.11l7.74,2.68A.79.79,0,0,0,31.66,23.36Z"/><path d="M31.2,0A31.2,31.2,0,1,0,62.4,31.2,31.21,31.21,0,0,0,31.2,0Zm0,1.3A29.9,29.9,0,1,1,1.3,31.2,29.89,29.89,0,0,1,31.2,1.3Z"/></g></svg>