<svg xmlns="http://www.w3.org/2000/svg" viewBox="0 0 62.4 62.4"><title>Artboard 34</title><g id="Layer_2" data-name="Layer 2"><path d="M20.33,33.22a20.19,20.19,0,0,1,3.28-10.95c2.13-3.2,4.83-5,7.58-5s5.45,1.76,7.58,5a20.19,20.19,0,0,1,3.28,10.95A12.23,12.23,0,0,1,38.87,42a10.62,10.62,0,0,1-7.67,3,10.61,10.61,0,0,1-7.67-3A12.23,12.23,0,0,1,20.33,33.22ZM40,21.18a14.26,14.26,0,0,0-3.78-3.84,8.53,8.53,0,0,0-10,0,14.46,14.46,0,0,0-3.93,4.06,21.81,21.81,0,0,0-3.55,11.83,15.16,15.16,0,0,0,1.76,7.4l1,1.51a11.9,11.9,0,0,0,.88,1,12.18,12.18,0,0,0,8.82,3.52A12.19,12.19,0,0,0,40,43.15a13.79,13.79,0,0,0,3.64-9.92,22,22,0,0,0-2.73-10.49Z"/><path d="M24.74,24a.78.78,0,0,0,.44.13.8.8,0,0,0,.67-.36C27.45,21.37,29.4,20,31.2,20a.8.8,0,0,0,0-1.6c-2.34,0-4.78,1.63-6.67,4.47A.81.81,0,0,0,24.74,24Z"/><path d="M31.2,0A31.2,31.2,0,1,0,62.4,31.2,31.21,31.21,0,0,0,31.2,0Zm0,1.3A29.9,29.9,0,1,1,1.3,31.2,29.89,29.89,0,0,1,31.2,1.3Z"/></g></svg>