<svg xmlns="http://www.w3.org/2000/svg" viewBox="0 0 62.4 62.4"><title>Artboard 33</title><g id="Layer_2" data-name="Layer 2"><path d="M27.64,48.57a.8.8,0,1,0,0-1.6.52.52,0,0,1-.52-.52V34.61a.8.8,0,0,0-1.6,0V46.46A2.11,2.11,0,0,0,27.64,48.57Z"/><path d="M39.44,24.7l0-.06a7.28,7.28,0,0,0-.63-1.8h0A7.12,7.12,0,0,0,37.5,21l-.16-.16,0,0a5.68,5.68,0,0,1-1.74-4.07v-.16h1a.8.8,0,0,0,.8-.8V12.31a.8.8,0,0,0-.8-.8H25.8a.8.8,0,0,0-.8.8v3.48a.8.8,0,0,0,.8.8h1v.16a5.68,5.68,0,0,1-1.74,4.07l0,0L24.9,21a7.12,7.12,0,0,0-1.29,1.81h0a7.28,7.28,0,0,0-.63,1.8l0,.06a7.36,7.36,0,0,0-.13,1.37V46.24A4.64,4.64,0,0,0,24,49.37a4.69,4.69,0,0,0,.84.73l.38.23.41.2.21.08a4.62,4.62,0,0,0,.89.23,4.68,4.68,0,0,0,.71.05h7.44a4.68,4.68,0,0,0,.71-.05,4.62,4.62,0,0,0,.89-.23l.21-.08.41-.2.38-.23a4.69,4.69,0,0,0,.84-.73,4.64,4.64,0,0,0,1.21-3.13V26.07A7.36,7.36,0,0,0,39.44,24.7Zm-15,1.37A5.65,5.65,0,0,1,26.17,22l0,0a7.26,7.26,0,0,0,2.23-5.22v-.16H34v.16A7.26,7.26,0,0,0,36.19,22l0,0A5.65,5.65,0,0,1,38,26.07v.49H24.43ZM26.6,15V13.1h9.2V15H26.6Zm.88,34.31a3.06,3.06,0,0,1-3.06-3.06V28.15H38V46.24a3.06,3.06,0,0,1-3.06,3.06Z"/><path d="M31.2,0A31.2,31.2,0,1,0,62.4,31.2,31.21,31.21,0,0,0,31.2,0Zm0,1.3A29.9,29.9,0,1,1,1.3,31.2,29.89,29.89,0,0,1,31.2,1.3Z"/></g></svg>