<svg xmlns="http://www.w3.org/2000/svg" viewBox="0 0 62.4 62.4"><title>Artboard 36</title><g id="Layer_2" data-name="Layer 2"><path d="M34.57,39.5l3.88,3.88a8.86,8.86,0,0,1-14.48,0l3.88-3.88a.8.8,0,0,0,0-1.13L14.06,24.59a20.42,20.42,0,0,1,34.28,0L34.57,38.37a.8.8,0,0,0-.23.57A.75.75,0,0,0,34.57,39.5Zm9.27-21.84c-.54-.38-1.09-.73-1.67-1.06a22,22,0,0,0-29.8,7.69.8.8,0,0,0,.12,1L24.36,37.14l1.26,1.26.53.53L22.37,42.7a.8.8,0,0,0-.12,1A10.61,10.61,0,0,0,26,47.33a10.46,10.46,0,0,0,14.15-3.65.8.8,0,0,0-.12-1l-3.77-3.77L49.92,25.27a.8.8,0,0,0,.12-1,22.17,22.17,0,0,0-4.77-5.53Z"/><path d="M17.54,24.38A18.81,18.81,0,0,1,23,19.65a.8.8,0,0,0-.79-1.38A20.32,20.32,0,0,0,15.84,24a.8.8,0,0,0,.09,1l9.55,9.55a.79.79,0,0,0,.57.23.81.81,0,0,0,.57-.23.8.8,0,0,0,0-1.13Z"/><path d="M31.2,0A31.2,31.2,0,1,0,62.4,31.2,31.21,31.21,0,0,0,31.2,0Zm0,1.3A29.9,29.9,0,1,1,1.3,31.2,29.89,29.89,0,0,1,31.2,1.3Z"/></g></svg>