<svg xmlns="http://www.w3.org/2000/svg" viewBox="0 0 62.4 62.4"><title>Artboard 38</title><g id="Layer_2" data-name="Layer 2"><path d="M33.08,18.19h2.29V20H27V18.19h6.05Zm-2.85-1.6.63-4.76h.69l.63,4.76Zm5.94,5h1.27V48.81c0,.53-2.1,1.77-6.17,1.77h-.14c-4.07,0-6.17-1.24-6.17-1.77V21.63h11.2ZM39,22.9V20.83a.8.8,0,0,0-.8-.8H37V17.39a.8.8,0,0,0-.8-.8H33.78L33,10.92a.8.8,0,0,0-.79-.69H30.15a.8.8,0,0,0-.79.69l-.74,5.66H26.23a.8.8,0,0,0-.8.8V20H24.16a.8.8,0,0,0-.8.8v28c0,.74.44,1.78,2.56,2.56a15.51,15.51,0,0,0,5.2.8h.14a15.64,15.64,0,0,0,5.2-.8c2.12-.78,2.56-1.82,2.56-2.56V25.43Z"/><path d="M25.86,23.18V46.66a.8.8,0,0,0,1.6,0V23.18a.8.8,0,0,0-1.6,0Z"/><path d="M31.2,0A31.2,31.2,0,1,0,62.4,31.2,31.21,31.21,0,0,0,31.2,0Zm0,1.3A29.9,29.9,0,1,1,1.3,31.2,29.89,29.89,0,0,1,31.2,1.3Z"/></g></svg>