<svg xmlns="http://www.w3.org/2000/svg" viewBox="0 0 62.4 62.4"><title>Artboard 39</title><g id="Layer_2" data-name="Layer 2"><path d="M18.31,33.95A18.77,18.77,0,0,1,21,24.57a15.63,15.63,0,0,1,6.42-6.25,10.6,10.6,0,0,0,3.81-3.07A10.68,10.68,0,0,0,35,18.32a15.63,15.63,0,0,1,6.42,6.25,18.79,18.79,0,0,1,2.67,9.38,14,14,0,0,1-3.79,10,12.6,12.6,0,0,1-9.11,3.73A12.59,12.59,0,0,1,22.09,44,14,14,0,0,1,18.31,33.95ZM40.76,20.9a15.65,15.65,0,0,0-5.07-4,9,9,0,0,1-3.49-2.95l-.35-.5a.79.79,0,0,0-.65-.34.8.8,0,0,0-.65.34l-.35.5a9,9,0,0,1-3.49,2.95c-5.7,2.73-10,10.07-10,17.07a17.21,17.21,0,0,0,1.13,6.29A15,15,0,0,0,19,42.64l1,1.47c.28.34.57.68.88,1A14.18,14.18,0,0,0,31.2,49.32a14.16,14.16,0,0,0,10.25-4.21,14.34,14.34,0,0,0,3.1-4.87,17.21,17.21,0,0,0,1.13-6.29,20.61,20.61,0,0,0-3.83-11.62Z"/><path d="M23,39.21l.11,0,0,.1a4.53,4.53,0,0,1-.22.43l0,.08a1.94,1.94,0,0,0,.49,2.6,3.91,3.91,0,0,0,.61.4c.34.18.34.28.32.49a2.73,2.73,0,0,0,.34,1.49,2.47,2.47,0,0,0,2.18,1.24,2.55,2.55,0,0,0,.49,0,2.74,2.74,0,0,0,2.1-2.17c0-.31.07-.62.09-.92s0-.52.07-.76a.58.58,0,0,1,.07-.23h0a.66.66,0,0,1,.17.18,4.8,4.8,0,0,1,.35.61c.05.1.1.2.16.29l.09.17,0,.09a.79.79,0,0,0,.68.45h.17a.78.78,0,0,0,.68-.45l0-.09a1.75,1.75,0,0,1,.09-.17l.16-.29a4.8,4.8,0,0,1,.35-.61.61.61,0,0,1,.17-.18h0a.5.5,0,0,1,.08.23,7.47,7.47,0,0,1,.07.76c0,.29,0,.61.09.92A2.74,2.74,0,0,0,35.14,46a2.61,2.61,0,0,0,.49,0,2.47,2.47,0,0,0,2.18-1.24,2.73,2.73,0,0,0,.34-1.49c0-.21,0-.31.32-.49a3.91,3.91,0,0,0,.61-.4,2,2,0,0,0,.49-2.6l0-.08a3.78,3.78,0,0,1-.22-.43.3.3,0,0,1,0-.1l.11,0h0a3.23,3.23,0,0,0,1.65-.74,3.05,3.05,0,0,0,.85-2.9,2.82,2.82,0,0,0-1.31-1.67,2.57,2.57,0,0,0,1.75-1.6l0,0a.8.8,0,0,0,.17-.49V31a.69.69,0,0,0-.05-.28,3.54,3.54,0,0,0-1.44-1.75s0-.05,0-.09a2.44,2.44,0,0,1,.09-.26l.09-.23a1.87,1.87,0,0,0-1-2.45c-.3-.13-.33-.19-.3-.52a4,4,0,0,0-.18-1.63,1.72,1.72,0,0,0-1.65-1.21,1.92,1.92,0,0,0-.47.06l-.17,0c-.06,0-.16,0-.36-.33a3.06,3.06,0,0,0-1.75-1.37,2.48,2.48,0,0,0-.71-.1,2.79,2.79,0,0,0-2.62,2,4.54,4.54,0,0,0,.05,2.45,2,2,0,0,1-.26,1.92.77.77,0,0,1-.61.29h0a.77.77,0,0,1-.61-.29,2,2,0,0,1-.26-1.92,4.54,4.54,0,0,0,.05-2.45,2.78,2.78,0,0,0-2.62-2,2.48,2.48,0,0,0-.71.1,3,3,0,0,0-1.75,1.37c-.2.33-.3.33-.36.33l-.17,0a1.92,1.92,0,0,0-.47-.06,1.71,1.71,0,0,0-1.65,1.21,3.91,3.91,0,0,0-.18,1.63c0,.33,0,.39-.3.52a1.86,1.86,0,0,0-1,2.45c0,.08.05.15.09.23a1.39,1.39,0,0,1,.09.26.57.57,0,0,1,0,.09,3.5,3.5,0,0,0-1.44,1.75.89.89,0,0,0-.05.28v.78a.8.8,0,0,0,.17.49l0,0a2.59,2.59,0,0,0,1.75,1.6,2.83,2.83,0,0,0-1.3,1.67,3.06,3.06,0,0,0,.85,2.9A3.17,3.17,0,0,0,23,39.2Zm-1-3.14a1.36,1.36,0,0,1,1.31-1h0a4.29,4.29,0,0,0,.91-.2,1.33,1.33,0,0,0,.84-1.55,1.36,1.36,0,0,0-1.3-1.15,2.33,2.33,0,0,0-.79.09,2.22,2.22,0,0,1-.61.11c-.28,0-.58-.06-.9-.79l0-.06v-.37a2.06,2.06,0,0,1,.85-.9,1.47,1.47,0,0,0,.6-1.68,2.8,2.8,0,0,0-.17-.54l-.06-.16c-.12-.36,0-.41.15-.47A1.93,1.93,0,0,0,24,25.23a2.42,2.42,0,0,1,.11-1c0-.12.11-.12.13-.12h.06a2.13,2.13,0,0,0,.57.08,2,2,0,0,0,1.72-1.09,1.39,1.39,0,0,1,.82-.67,1.16,1.16,0,0,1,.29,0,1.19,1.19,0,0,1,1.09.91A3.13,3.13,0,0,1,28.76,25a3.65,3.65,0,0,0,.58,3.28,2.37,2.37,0,0,0,1.82.85h0A2.37,2.37,0,0,0,33,28.24,3.63,3.63,0,0,0,33.62,25a3.06,3.06,0,0,1-.09-1.63,1.2,1.2,0,0,1,1.09-.91,1.27,1.27,0,0,1,.29,0,1.39,1.39,0,0,1,.82.67,2,2,0,0,0,1.72,1.09,2.13,2.13,0,0,0,.57-.08h.06s.09,0,.13.12a2.42,2.42,0,0,1,.11,1,2,2,0,0,0,1.23,2.15c.14.06.27.12.15.47a.92.92,0,0,1-.06.16,2.8,2.8,0,0,0-.17.54,1.49,1.49,0,0,0,.6,1.68,2,2,0,0,1,.85.9v.37l0,.06c-.32.73-.62.79-.9.79h0a2.27,2.27,0,0,1-.61-.11,2.33,2.33,0,0,0-.79-.09,1.36,1.36,0,0,0-1.3,1.15,1.33,1.33,0,0,0,.84,1.55,4.22,4.22,0,0,0,.9.2h0a1.37,1.37,0,0,1,1.31,1,1.57,1.57,0,0,1-.44,1.24,1.78,1.78,0,0,1-.89.34h0a1.57,1.57,0,0,0-1.2,2.3c.09.22.19.4.29.59l0,.08c.18.33.11.43-.09.59a2.28,2.28,0,0,1-.36.24,2,2,0,0,0-1.15,2.06,1.16,1.16,0,0,1-.16.57.86.86,0,0,1-.78.4l-.19,0a1.15,1.15,0,0,1-.82-.85c0-.25-.05-.5-.08-.78s0-.58-.09-.88a1.73,1.73,0,0,0-1.37-1.57,1.52,1.52,0,0,0-.32,0,1.76,1.76,0,0,0-1.47.85l-.09.14-.09-.14a1.76,1.76,0,0,0-1.47-.85,1.43,1.43,0,0,0-.32,0,1.72,1.72,0,0,0-1.37,1.57c0,.3-.06.6-.09.88s0,.54-.08.78a1.16,1.16,0,0,1-.82.85.76.76,0,0,1-.19,0,.9.9,0,0,1-.78-.4,1.27,1.27,0,0,1-.16-.57,2,2,0,0,0-1.15-2.06,2.69,2.69,0,0,1-.36-.24c-.19-.16-.26-.26-.09-.59l0-.08c.1-.19.2-.37.29-.59a1.65,1.65,0,0,0,0-1.47,1.67,1.67,0,0,0-1.21-.83h0a1.86,1.86,0,0,1-.89-.34A1.6,1.6,0,0,1,22,36.07Z"/><path d="M31.2,0A31.2,31.2,0,1,0,62.4,31.2,31.21,31.21,0,0,0,31.2,0Zm0,1.3A29.9,29.9,0,1,1,1.3,31.2,29.89,29.89,0,0,1,31.2,1.3Z"/></g></svg>