<svg xmlns="http://www.w3.org/2000/svg" viewBox="0 0 62.4 62.4"><title>Artboard 30</title><g id="Layer_2" data-name="Layer 2"><path d="M26.17,22.53a19.17,19.17,0,0,1,12.12,1.34,23.58,23.58,0,0,1,7.36,5.36.78.78,0,0,0,.57.25.8.8,0,0,0,.57-.23l2.71-2.71v9.3l-2.71-2.71a.8.8,0,0,0-.57-.23.78.78,0,0,0-.57.25,23.58,23.58,0,0,1-7.36,5.36,19.18,19.18,0,0,1-12.12,1.34,31.5,31.5,0,0,0,1.19-8.67A31.87,31.87,0,0,0,26.17,22.53ZM13.12,31.2a23.52,23.52,0,0,1,11.51-8.26,30.1,30.1,0,0,1,1.14,8.26,29.85,29.85,0,0,1-1.14,8.26A23.52,23.52,0,0,1,13.12,31.2Zm25.83-8.76A20.77,20.77,0,0,0,20.31,23a26.6,26.6,0,0,0-8.65,7.46l-.18.23a.8.8,0,0,0,0,1l.18.23a26.6,26.6,0,0,0,8.65,7.46c.37.19.75.38,1.13.56l1.79.74A20.72,20.72,0,0,0,38.94,40a24.85,24.85,0,0,0,7.29-5.13l3.49,3.49a.8.8,0,0,0,1.36-.57V24.63a.8.8,0,0,0-1.36-.57l-3.49,3.49a25.73,25.73,0,0,0-5.61-4.28Z"/><path d="M20.71,26.48a2.62,2.62,0,1,0,2.62,2.62A2.62,2.62,0,0,0,20.71,26.48Zm0,3.63a1,1,0,1,1,1-1A1,1,0,0,1,20.71,30.11Z"/><path d="M31.2,0A31.2,31.2,0,1,0,62.4,31.2,31.21,31.21,0,0,0,31.2,0Zm0,1.3A29.9,29.9,0,1,1,1.3,31.2,29.89,29.89,0,0,1,31.2,1.3Z"/></g></svg>