<svg xmlns="http://www.w3.org/2000/svg" viewBox="0 0 62.4 62.4"><title>Artboard 37</title><g id="Layer_2" data-name="Layer 2"><path d="M22.76,34.56h0c2,0,3.65-1.59,4.32-4.14a9.55,9.55,0,0,0,.07-4.49c-.4-1.62-1.23-2.67-2.36-3a2.39,2.39,0,0,0-.62-.08,4.31,4.31,0,0,0-3.1,1.77,9.7,9.7,0,0,0-1.89,3.7,6,6,0,0,0,.16,3.93,3.68,3.68,0,0,0,2.49,2.14A3.27,3.27,0,0,0,22.76,34.56Zm-2-5.8a7.93,7.93,0,0,1,1.57-3.07,2.9,2.9,0,0,1,1.89-1.21.72.72,0,0,1,.23,0c.51.13,1,.81,1.21,1.8a8,8,0,0,1-.06,3.7C25.06,31.84,24,33,22.76,33a2.17,2.17,0,0,1-.54-.07C20.75,32.51,20.16,30.9,20.71,28.76Z"/><path d="M22.57,32.33a.79.79,0,0,0,.77-.6L24.84,26a.8.8,0,1,0-1.54-.4l-1.5,5.77a.8.8,0,0,0,.57,1Z"/><path d="M41.17,36a2.62,2.62,0,0,0-1.39-.37c-1.83,0-4.17,1.65-5.55,3.91a6,6,0,0,0-1,3.81A3.72,3.72,0,0,0,35,46.11a3.68,3.68,0,0,0,1.92.54h0a5.25,5.25,0,0,0,4.28-2.87C42.85,41.09,43.23,37.24,41.17,36Zm-1.32,7a3.72,3.72,0,0,1-2.92,2.11,2.1,2.1,0,0,1-1.09-.31c-1.3-.78-1.39-2.51-.25-4.38s2.93-3.15,4.18-3.15a1,1,0,0,1,.56.14C41.3,37.93,41.27,40.63,39.85,42.95Z"/><path d="M40.09,37.78A.8.8,0,0,0,39,38l-3.1,5.08a.8.8,0,0,0,.68,1.21.81.81,0,0,0,.68-.38l3.1-5.08A.79.79,0,0,0,40.09,37.78Z"/><path d="M31.67,27.24h0a3.93,3.93,0,0,0,.53,0,3.72,3.72,0,0,0,2.72-1.85,6,6,0,0,0,.61-3.89,9.67,9.67,0,0,0-1.54-4,4,4,0,0,0-3.08-2l-.34,0c-2.38.33-3.56,4-3.13,7.13C27.82,25.42,29.49,27.24,31.67,27.24Zm-.89-10.19h.12a2.6,2.6,0,0,1,1.77,1.32,7.76,7.76,0,0,1,1.28,3.33c.3,2.18-.47,3.72-2,3.93l-.31,0h0c-1.36,0-2.38-1.25-2.66-3.26C28.63,19.7,29.66,17.21,30.77,17.05Z"/><path d="M31,24.35a.79.79,0,0,0,.79.68h.11a.8.8,0,0,0,.68-.9l-.83-5.9a.8.8,0,0,0-1.58.23Z"/><path d="M31.56,39.57h0a3.93,3.93,0,0,0,.53,0,3.72,3.72,0,0,0,2.72-1.85,6,6,0,0,0,.61-3.89,9.67,9.67,0,0,0-1.54-4,4,4,0,0,0-3.08-2l-.34,0c-2.38.33-3.56,4-3.13,7.13C27.72,37.75,29.38,39.57,31.56,39.57Zm-.89-10.19h.12a2.6,2.6,0,0,1,1.77,1.32A7.76,7.76,0,0,1,33.83,34c.3,2.18-.47,3.72-2,3.93l-.31,0h0c-1.36,0-2.38-1.25-2.66-3.26C28.52,32,29.56,29.54,30.67,29.38Z"/><path d="M30.88,36.68a.79.79,0,0,0,.79.68h.11a.8.8,0,0,0,.68-.9l-.83-5.9a.8.8,0,1,0-1.58.23Z"/><path d="M38.72,34.53h0a3.93,3.93,0,0,0,.53,0,3.72,3.72,0,0,0,3-1.37,6,6,0,0,0,1.24-3.73,9.67,9.67,0,0,0-.86-4.22,4,4,0,0,0-2.71-2.48l-.34,0c-2.4-.06-4.18,3.38-4.26,6.52C35.23,32.09,36.57,34.17,38.72,34.53Zm.8-10.2h.12c.53.09,1.1.69,1.53,1.59a7.76,7.76,0,0,1,.71,3.49c-.06,2.2-1.07,3.6-2.59,3.56L39,33h0c-1.34-.22-2.14-1.63-2.09-3.65C37,26.59,38.4,24.3,39.52,24.33Z"/><path d="M38.53,31.56a.79.79,0,0,0,.67.8h.11a.8.8,0,0,0,.81-.78l.15-6a.8.8,0,0,0-1.59,0Z"/><path d="M26.07,46.89h0a3.93,3.93,0,0,0,.51-.14,3.72,3.72,0,0,0,2.33-2.33,6,6,0,0,0-.14-3.93,9.67,9.67,0,0,0-2.27-3.66,4,4,0,0,0-3.4-1.39l-.33.09c-2.28.77-2.74,4.62-1.73,7.59C21.95,45.81,23.92,47.29,26.07,46.89ZM23.28,37l.11,0a2.6,2.6,0,0,1,2,1,7.76,7.76,0,0,1,1.88,3c.71,2.08.24,3.75-1.19,4.23l-.3.08h0c-1.33.25-2.57-.78-3.23-2.7C21.67,40,22.22,37.41,23.28,37Z"/><path d="M24.86,44.17a.79.79,0,0,0,.91.52l.11,0a.8.8,0,0,0,.49-1L24.44,38a.8.8,0,1,0-1.51.52Z"/><path d="M31.2,0A31.2,31.2,0,1,0,62.4,31.2,31.21,31.21,0,0,0,31.2,0Zm0,1.3A29.9,29.9,0,1,1,1.3,31.2,29.89,29.89,0,0,1,31.2,1.3Z"/></g></svg>