<svg xmlns="http://www.w3.org/2000/svg" viewBox="0 0 62.4 62.4"><title>Artboard 32</title><g id="Layer_2" data-name="Layer 2"><path d="M26.77,42.4a2.28,2.28,0,0,1-.68-.12,2.21,2.21,0,0,0-.52-.12.57.57,0,0,0-.4.14.47.47,0,0,0-.15.36c0,.21.16.4.47.55a2.49,2.49,0,0,0,1.13.23A2,2,0,0,0,28,43a1.51,1.51,0,0,0,.53-1.19,1.3,1.3,0,0,0-.33-.9,2.35,2.35,0,0,0-1-.6l-.23-.08c-.43-.14-.65-.3-.65-.5a.36.36,0,0,1,.15-.3.63.63,0,0,1,.4-.12,2,2,0,0,1,.45.09,2,2,0,0,0,.43.09.53.53,0,0,0,.37-.12A.47.47,0,0,0,28.2,39a.6.6,0,0,0-.38-.52,2,2,0,0,0-1-.21,1.89,1.89,0,0,0-1.29.43,1.42,1.42,0,0,0-.5,1.13,1.14,1.14,0,0,0,.31.85,2.47,2.47,0,0,0,1.08.54,2.18,2.18,0,0,1,.7.3.47.47,0,0,1,.16.37.49.49,0,0,1-.16.36A.56.56,0,0,1,26.77,42.4Z"/><path d="M31.27,43.46A2.3,2.3,0,0,0,33,42.75,3,3,0,0,0,33,39a2.48,2.48,0,0,0-3.5,0,3,3,0,0,0,0,3.77A2.28,2.28,0,0,0,31.27,43.46Zm-.88-3.72a1.11,1.11,0,0,1,1.74,0,1.8,1.8,0,0,1,.33,1.13,1.72,1.72,0,0,1-.33,1.1,1,1,0,0,1-.87.41,1.07,1.07,0,0,1-.87-.41,1.74,1.74,0,0,1-.33-1.1A1.8,1.8,0,0,1,30.39,39.74Z"/><path d="M34.8,43.89l-.21.23c-.45.5-.68.81-.68,1a.46.46,0,0,0,.16.39.82.82,0,0,0,.5.13h2a1.1,1.1,0,0,0,.6-.13.48.48,0,0,0,0-.78,1.12,1.12,0,0,0-.6-.13h-1A10.79,10.79,0,0,0,36.9,43a1.87,1.87,0,0,0,.33-1,1.36,1.36,0,0,0-.44-1,1.62,1.62,0,0,0-1.14-.41,1.65,1.65,0,0,0-.73.16,1.71,1.71,0,0,0-.59.47,1.68,1.68,0,0,0-.25.45,1.34,1.34,0,0,0-.09.46.59.59,0,0,0,.16.42.52.52,0,0,0,.4.16.41.41,0,0,0,.3-.12,1.32,1.32,0,0,0,.24-.46,1.17,1.17,0,0,1,.23-.38.45.45,0,0,1,.3-.13.39.39,0,0,1,.3.13.49.49,0,0,1,.12.34,1.22,1.22,0,0,1-.25.61A9.71,9.71,0,0,1,34.8,43.89Z"/><path d="M45.28,46c0-.06,0-.12,0-.17v-.06q0-.08,0-.16v0a3.25,3.25,0,0,0,0-.41v0a3.38,3.38,0,0,0-.49-1.25L37.17,31l-.81-1.37-.1-.17-1-1.73V15h.45a.8.8,0,0,0,0-1.6h-9a.8.8,0,0,0,0,1.6h.45V27.7l-1,1.73-.1.17L25.23,31,17.65,43.85a3.38,3.38,0,0,0-.49,1.25v0a3.24,3.24,0,0,0,0,.41v0q0,.08,0,.16v.06c0,.06,0,.12,0,.17v.17a3.38,3.38,0,0,0,.38,1.14,3.31,3.31,0,0,0,1.7,1.51l.07,0,.1,0,.11,0,.08,0,.19,0h0L20,49H20l.17,0h22l.17,0h.05l.17,0h0l.19,0,.08,0,.11,0,.1,0,.07,0a3.31,3.31,0,0,0,1.7-1.51,3.38,3.38,0,0,0,.38-1.14V46ZM33.64,15V27.91a.83.83,0,0,0,.11.4L36,32.07H26.44l2.21-3.76a.83.83,0,0,0,.11-.4V15ZM20.46,47.41h0a1.72,1.72,0,0,1-1.52-.91A1.72,1.72,0,0,1,19,44.71h0l6.49-11H36.9l6.49,11h0a1.72,1.72,0,0,1,.07,1.78,1.72,1.72,0,0,1-1.52.91H20.46Z"/><path d="M31.2,0A31.2,31.2,0,1,0,62.4,31.2,31.21,31.21,0,0,0,31.2,0Zm0,1.3A29.9,29.9,0,1,1,1.3,31.2,29.89,29.89,0,0,1,31.2,1.3Z"/></g></svg>