<svg xmlns="http://www.w3.org/2000/svg" viewBox="0 0 62.4 62.4"><title>Artboard 35</title><g id="Layer_2" data-name="Layer 2"><path d="M35.24,27.45a4.42,4.42,0,0,1,.8,4.1L35,35A4.4,4.4,0,0,1,32,38a.79.79,0,0,0-.54.53.81.81,0,0,0,.14.74,4.42,4.42,0,0,1,.8,4.1l-1.08,3.48a4.4,4.4,0,0,1-4.22,3.12,4.36,4.36,0,0,1-1.3-.2l-.1,0a4.43,4.43,0,0,1-2.92-5.53l1.08-3.48a4.4,4.4,0,0,1,3-2.93.79.79,0,0,0,.54-.53.81.81,0,0,0-.14-.74,4.42,4.42,0,0,1-.8-4.1L27.5,28.9a4.4,4.4,0,0,1,3-2.93.79.79,0,0,0,.54-.53.81.81,0,0,0-.14-.74,4.42,4.42,0,0,1-.8-4.1l1.08-3.48A4.4,4.4,0,0,1,35.36,14l.46,0a.8.8,0,0,0,.66-.24l.61-.57.16.69a.51.51,0,0,0,0,.11.81.81,0,0,0,.4.6,4.45,4.45,0,0,1,2,5.15l-1.1,3.48a4.38,4.38,0,0,1-.78,1.47l-.66.66a4.51,4.51,0,0,1-1.53.81.79.79,0,0,0-.39,1.26Zm3.83-1.8a15.07,15.07,0,0,0,2.13-5.41,6.71,6.71,0,0,0-.17-4,6,6,0,0,0-2.27-2.78l-.43-1.92A.8.8,0,0,0,37,11.1l-1.41,1.32h-.25a6,6,0,0,0-5.74,4.24l-1.08,3.48A6,6,0,0,0,29,24.82a6,6,0,0,0-3,3.6l-1.08,3.48a6,6,0,0,0,.49,4.69,6,6,0,0,0-3,3.6L21.2,43.86a6,6,0,0,0,4,7.36l.1,0a6.06,6.06,0,0,0,1.78.27h0a6,6,0,0,0,5.74-4.24l1.08-3.48a6,6,0,0,0-.49-4.69,6,6,0,0,0,3-3.6L37.56,32a5.27,5.27,0,0,0-.62-4.82A4.44,4.44,0,0,0,39.07,25.65Z"/><path d="M38,22.82l.95-3.06a3.69,3.69,0,0,0-2.44-4.61l-.09,0A3.72,3.72,0,0,0,35.29,15a3.67,3.67,0,0,0-3.52,2.6l-.95,3.06a3.69,3.69,0,0,0,2.44,4.61l.09,0a3.72,3.72,0,0,0,1.09.16A3.68,3.68,0,0,0,38,22.82Zm-3.52,1a2,2,0,0,1-.61-.09l-.09,0a2.07,2.07,0,0,1-1.23-1,2.05,2.05,0,0,1-.15-1.6L33.3,18a2.11,2.11,0,0,1,2-1.47,2,2,0,0,1,.61.09l.09,0a2.09,2.09,0,0,1,1.38,2.62l-.95,3.06A2.11,2.11,0,0,1,34.43,23.82Z"/><path d="M32.83,26.93l-.09,0a3.72,3.72,0,0,0-1.09-.16,3.67,3.67,0,0,0-3.52,2.6l-.95,3.06A3.69,3.69,0,0,0,29.62,37l.09,0a3.72,3.72,0,0,0,1.09.16,3.67,3.67,0,0,0,3.52-2.6l.95-3.06a3.69,3.69,0,0,0-2.44-4.61Zm.92,4.14-.95,3.06a2.12,2.12,0,0,1-2,1.47,2,2,0,0,1-.61-.09l-.09,0a2.07,2.07,0,0,1-1.23-1,2.05,2.05,0,0,1-.15-1.6l.95-3.06a2.12,2.12,0,0,1,2-1.47,2,2,0,0,1,.61.09l.09,0a2.07,2.07,0,0,1,1.23,1A2.13,2.13,0,0,1,33.74,31.06Z"/><path d="M29.19,38.7l-.09,0A3.72,3.72,0,0,0,28,38.5a3.67,3.67,0,0,0-3.52,2.6l-.95,3.06A3.69,3.69,0,0,0,26,48.77l.09,0a3.72,3.72,0,0,0,1.09.16,3.67,3.67,0,0,0,3.52-2.6l.95-3.06a3.69,3.69,0,0,0-2.44-4.61Zm.92,4.14-.95,3.06a2.12,2.12,0,0,1-2,1.47,2,2,0,0,1-.61-.09l-.09,0a2.09,2.09,0,0,1-1.38-2.62L26,41.58a2.12,2.12,0,0,1,2-1.47,2,2,0,0,1,.61.09l.09,0a2.07,2.07,0,0,1,1.23,1A2.1,2.1,0,0,1,30.1,42.84Z"/><path d="M31.2,0A31.2,31.2,0,1,0,62.4,31.2,31.21,31.21,0,0,0,31.2,0Zm0,1.3A29.9,29.9,0,1,1,1.3,31.2,29.89,29.89,0,0,1,31.2,1.3Z"/></g></svg>