<svg xmlns="http://www.w3.org/2000/svg" viewBox="0 0 62.4 62.4"><title>Artboard 27</title><g id="Layer_2" data-name="Layer 2"><path d="M37.27,14.36a.71.71,0,0,0-.73.73v5.42a10.2,10.2,0,0,0-2.14,1,8.11,8.11,0,0,0,.21-1.67,8.92,8.92,0,0,0-2.66-6V10.6a.73.73,0,1,0-1.46,0v3.23a8.91,8.91,0,0,0-2.61,5.94,7,7,0,0,0,.26,1.83,8.11,8.11,0,0,0-2.35-1.1V15.09a.73.73,0,0,0-1.46,0v5.84A10.1,10.1,0,0,0,24.7,27a.45.45,0,0,0-.16.26c-.13.61-.24.83-.3,1.19A8,8,0,0,0,26,35.41a9,9,0,0,0,2.66,2,8.9,8.9,0,0,0,1.81.7l.05,13.72a.71.71,0,0,0,.73.73.71.71,0,0,0,.73-.73V38.13a10.88,10.88,0,0,0,4.22-2.45,7.43,7.43,0,0,0,1.15-1.46,7.83,7.83,0,0,0,1.06-4.07,10.34,10.34,0,0,0-.26-2.36c0-.14-.08-.27-.12-.4a1.25,1.25,0,0,0-.31-.42,9.78,9.78,0,0,0,.31-6V15.09A.71.71,0,0,0,37.27,14.36Zm-7.93,5.42a8,8,0,0,1,1.88-4.59,7.22,7.22,0,0,1,1.88,4.59,7.38,7.38,0,0,1-1.88,4.59A7.49,7.49,0,0,1,29.34,19.78ZM26.11,27a8,8,0,0,1-.68-5,7.11,7.11,0,0,1,4,3.08,7.33,7.33,0,0,1,.68,4.75,9.88,9.88,0,0,0-3.86-2.61A.56.56,0,0,1,26.11,27Zm-.46,1.61c1.6.53,5.85,2.66,4.78,8C28.84,36,24.58,33.9,25.65,28.58Zm6.71,7.9c-.35-1.64-.67-6.39,4.46-8.16C37.17,30,37.49,34.71,32.36,36.48ZM36,27a.44.44,0,0,1-.16.26,9.76,9.76,0,0,0-3.18,2,3.59,3.59,0,0,0-.57.68,7.11,7.11,0,0,1,.68-4.85A7.75,7.75,0,0,1,36.69,22,7.69,7.69,0,0,1,36,27Z"/><path d="M31.2,0A31.2,31.2,0,1,0,62.4,31.2,31.21,31.21,0,0,0,31.2,0Zm0,1.3A29.9,29.9,0,1,1,1.3,31.2,29.89,29.89,0,0,1,31.2,1.3Z"/></g></svg>